<?xml version="1.0" encoding="utf-8"?>
<!-- Generator: Adobe Illustrator 17.0.2, SVG Export Plug-In . SVG Version: 6.00 Build 0)  -->
<!DOCTYPE svg PUBLIC "-//W3C//DTD SVG 1.1//EN" "http://www.w3.org/Graphics/SVG/1.1/DTD/svg11.dtd">
<svg version="1.1" id="Layer_1" xmlns="http://www.w3.org/2000/svg" xmlns:xlink="http://www.w3.org/1999/xlink" x="0px" y="0px"
	 width="256px" height="256px" viewBox="0 0 256 256" enable-background="new 0 0 256 256" xml:space="preserve">
<path fill="#B94700" d="M255,234.3c0,11.5-9.3,20.7-20.7,20.7H21.7C10.3,255,1,245.7,1,234.3V21.7C1,10.3,10.3,1,21.7,1h212.5
	c11.5,0,20.7,9.3,20.7,20.7v212.6H255z"/>
<g id="Plus">
	<g>
		<polygon fill="#FE5000" points="218,86 191,86 191,56 183,56 183,86 154,86 154,93 183,93 183,120 191,120 191,93 218,93 		"/>
	</g>
	<defs>
		<filter id="Adobe_OpacityMaskFilter" filterUnits="userSpaceOnUse" x="154" y="56" width="64" height="64">
			<feFlood  style="flood-color:white;flood-opacity:1" result="back"/>
			<feBlend  in="SourceGraphic" in2="back" mode="normal"/>
		</filter>
	</defs>
	<mask maskUnits="userSpaceOnUse" x="154" y="56" width="64" height="64" id="SVGID_1_">
		<g filter="url(#Adobe_OpacityMaskFilter)">
			<image overflow="visible" width="69" height="69" xlink:href="563E8B883DF36EE0.jpg"  transform="matrix(1 0 0 1 151.5 53.5)">
			</image>
		</g>
	</mask>
	<g opacity="0.4" mask="url(#SVGID_1_)">
		<polygon fill="#FFFFFF" points="218,86 191,86 191,56 183,56 183,86 154,86 154,93 183,93 183,120 191,120 191,93 218,93 		"/>
	</g>
</g>
<g id="g">
	<g>
		<path fill="#FE5000" d="M122.2,138.8c-4-2.8-11.7-9.8-11.7-13.8c0-4.8,1.4-7.1,8.5-12.7c7.3-5.7,12.5-13,12.5-22.4
			c0-11.2-5-22.9-14.3-24.9h14.1l9.9-9H96.8c-19.9,0-38.7,15.2-38.7,32.7c0,17.9,13.6,32.3,33.8,32.3c1.4,0,2.8,0,4.1-0.1
			c-1.3,2.5-2.3,5.4-2.3,8.3c0,5,2.7,9,6,12.3c-2.6,0-5,0.1-7.7,0.1c-24.7,0-43.7,15.7-43.7,32c0,16,20.8,26.1,45.5,26.1
			c28.1,0,43.7-16,43.7-32C137.7,154.8,133.9,147.1,122.2,138.8L122.2,138.8z M98.5,116.5c-11.4-0.3-22.3-12.8-24.3-27.8
			s5.7-26.5,17.1-26.2s22.3,12.4,24.3,27.4C117.6,105,109.9,116.9,98.5,116.5z M94,192.6c-17.1,0-29.4-10.8-29.4-23.8
			c0-12.7,15.3-23.3,32.3-23.1c4,0,7.7,0.7,11.1,1.8c9.3,6.4,15.9,10.1,17.8,17.4c0.4,1.5,0.5,3,0.5,4.6
			C126.3,182.5,118,192.6,94,192.6L94,192.6z"/>
	</g>
	<defs>
		<filter id="Adobe_OpacityMaskFilter_1_" filterUnits="userSpaceOnUse" x="48.3" y="56" width="92.9" height="143.7">
			<feFlood  style="flood-color:white;flood-opacity:1" result="back"/>
			<feBlend  in="SourceGraphic" in2="back" mode="normal"/>
		</filter>
	</defs>
	<mask maskUnits="userSpaceOnUse" x="48.3" y="56" width="92.9" height="143.7" id="SVGID_2_">
		<g filter="url(#Adobe_OpacityMaskFilter_1_)">
			<image overflow="visible" width="98" height="149" xlink:href="563E8B883DF36EE1.jpg"  transform="matrix(1 0 0 1 45.5 53.5)">
			</image>
		</g>
	</mask>
	<g opacity="0.4" mask="url(#SVGID_2_)">
		<path fill="#FFFFFF" d="M122.2,138.8c-4-2.8-11.7-9.8-11.7-13.8c0-4.8,1.4-7.1,8.5-12.7c7.3-5.7,12.5-13,12.5-22.4
			c0-11.2-5-22.9-14.3-24.9h14.1l9.9-9H96.8c-19.9,0-38.7,15.2-38.7,32.7c0,17.9,13.6,32.3,33.8,32.3c1.4,0,2.8,0,4.1-0.1
			c-1.3,2.5-2.3,5.4-2.3,8.3c0,5,2.7,9,6,12.3c-2.6,0-5,0.1-7.7,0.1c-24.7,0-43.7,15.7-43.7,32c0,16,20.8,26.1,45.5,26.1
			c28.1,0,43.7-16,43.7-32C137.7,154.8,133.9,147.1,122.2,138.8L122.2,138.8z M98.5,116.5c-11.4-0.3-22.3-12.8-24.3-27.8
			s5.7-26.5,17.1-26.2s22.3,12.4,24.3,27.4C117.6,105,109.9,116.9,98.5,116.5z M94,192.6c-17.1,0-29.4-10.8-29.4-23.8
			c0-12.7,15.3-23.3,32.3-23.1c4,0,7.7,0.7,11.1,1.8c9.3,6.4,15.9,10.1,17.8,17.4c0.4,1.5,0.5,3,0.5,4.6
			C126.3,182.5,118,192.6,94,192.6L94,192.6z"/>
	</g>
</g>
</svg>
