<?xml version="1.0" encoding="utf-8"?>
<!-- Generator: Adobe Illustrator 17.0.2, SVG Export Plug-In . SVG Version: 6.00 Build 0)  -->
<!DOCTYPE svg PUBLIC "-//W3C//DTD SVG 1.1//EN" "http://www.w3.org/Graphics/SVG/1.1/DTD/svg11.dtd">
<svg version="1.1" id="Layer_1" xmlns="http://www.w3.org/2000/svg" xmlns:xlink="http://www.w3.org/1999/xlink" x="0px" y="0px"
	 width="256px" height="256px" viewBox="0 0 256 256" enable-background="new 0 0 256 256" xml:space="preserve">
<path fill="#007398" d="M255,234.3c0,11.5-9.3,20.7-20.7,20.7H21.7C10.3,255,1,245.7,1,234.3V21.7C1,10.3,10.3,1,21.7,1h212.5
	c11.5,0,20.7,9.3,20.7,20.7v212.6H255z"/>
<g>
	<g>
		<path fill="#00A3AD" d="M210.4,76.1c-6.2,2.7-12.6,4.4-19.3,5.2c7.2-4.6,12.2-10.9,14.9-18.9c-6.7,4-13.9,6.8-21.7,8.4
			c-6.7-7.5-14.9-11.3-24.5-11.3c-9.4,0-17.4,3.4-23.9,10.3c-6.6,6.8-9.9,14.9-9.9,24.3c0,2.7,0.3,5.4,0.8,8
			c-13.9-0.8-26.9-4.4-39-10.7c-12.1-6.3-22.3-14.8-30.6-25.5C54,71.3,52.4,77,52.4,83.2c0,12.3,5.1,21.9,15.3,28.5
			c-5.6,0-10.9-1.3-15.7-4v0.4c0,8.3,2.6,15.6,7.8,21.9s11.7,10.3,19.5,11.9c-3,0.8-5.9,1.2-8.8,1.2c-2.1,0-4.3-0.3-6.4-0.8
			c2.1,7,6.1,12.7,11.9,17.1c5.8,4.4,12.4,6.8,19.9,7c-12.3,9.6-26.4,14.5-42.2,14.5c-2.7,0-5.4-0.1-8-0.4
			c15.8,10.5,33.1,15.7,51.9,15.7c15,0,28.7-2.9,41.2-8.8c12.5-5.9,22.6-13.6,30.4-23.1c7.8-9.5,13.8-20,18.1-31.6
			c4.3-11.5,6.4-23,6.4-34.6v-4.4C200.2,89,205.9,83.1,210.4,76.1L210.4,76.1z"/>
	</g>
	<defs>
		<filter id="Adobe_OpacityMaskFilter" filterUnits="userSpaceOnUse" x="45.7" y="59.5" width="164.7" height="136.7">
			
				<feColorMatrix  type="matrix" values="-1 0 0 0 1  0 -1 0 0 1  0 0 -1 0 1  0 0 0 1 0" color-interpolation-filters="sRGB" result="source"/>
		</filter>
	</defs>
	<mask maskUnits="userSpaceOnUse" x="45.7" y="59.5" width="164.7" height="136.7" id="SVGID_1_">
		<g filter="url(#Adobe_OpacityMaskFilter)">
			<image overflow="visible" width="169" height="141" xlink:href="D604D26BFB964E8C.jpg"  transform="matrix(1 0 0 1 43.5 57.5)">
			</image>
		</g>
	</mask>
	<g opacity="0.53" mask="url(#SVGID_1_)">
		<path fill="#FFFFFF" d="M210.4,76.1c-6.2,2.7-12.6,4.4-19.3,5.2c7.2-4.6,12.2-10.9,14.9-18.9c-6.7,4-13.9,6.8-21.7,8.4
			c-6.7-7.5-14.9-11.3-24.5-11.3c-9.4,0-17.4,3.4-23.9,10.3c-6.6,6.8-9.9,14.9-9.9,24.3c0,2.7,0.3,5.4,0.8,8
			c-13.9-0.8-26.9-4.4-39-10.7c-12.1-6.3-22.3-14.8-30.6-25.5C54,71.3,52.4,77,52.4,83.2c0,12.3,5.1,21.9,15.3,28.5
			c-5.6,0-10.9-1.3-15.7-4v0.4c0,8.3,2.6,15.6,7.8,21.9s11.7,10.3,19.5,11.9c-3,0.8-5.9,1.2-8.8,1.2c-2.1,0-4.3-0.3-6.4-0.8
			c2.1,7,6.1,12.7,11.9,17.1c5.8,4.4,12.4,6.8,19.9,7c-12.3,9.6-26.4,14.5-42.2,14.5c-2.7,0-5.4-0.1-8-0.4
			c15.8,10.5,33.1,15.7,51.9,15.7c15,0,28.7-2.9,41.2-8.8c12.5-5.9,22.6-13.6,30.4-23.1c7.8-9.5,13.8-20,18.1-31.6
			c4.3-11.5,6.4-23,6.4-34.6v-4.4C200.2,89,205.9,83.1,210.4,76.1L210.4,76.1z"/>
	</g>
</g>
</svg>
