<?xml version="1.0" encoding="utf-8"?>
<!-- Generator: Adobe Illustrator 17.0.2, SVG Export Plug-In . SVG Version: 6.00 Build 0)  -->
<!DOCTYPE svg PUBLIC "-//W3C//DTD SVG 1.1//EN" "http://www.w3.org/Graphics/SVG/1.1/DTD/svg11.dtd">
<svg version="1.1" id="Layer_1" xmlns="http://www.w3.org/2000/svg" xmlns:xlink="http://www.w3.org/1999/xlink" x="0px" y="0px"
	 width="576px" height="576px" viewBox="0 0 576 576" enable-background="new 0 0 576 576" xml:space="preserve">
<image display="none" overflow="visible" width="2243" height="3521" xlink:href="../../../../../outside project/whispering S/drawing.jpeg"  transform="matrix(1.584576e-11 0.3529 -0.3529 1.584576e-11 608.0486 -70.0741)">
</image>
<g>
	<path id="feather_tip" fill="#FFFFFF" d="M440.639,436.333c0,0,0.667,81.128-44,111.897c0,0-46,16.103-143.333,15.436
		c-97.333-0.667-89.333-44-89.333-47.333c0-3.333-3.333-21.333,16-32c19.333-10.667,88-39.615,92.667-50c0,0,24.667-13.333,32-8.051
		c1.698,1.223,25.333,24.051,68.667,24.718c0,0-24,11.333-36,14s-5.333,14.667-5.333,14.667S403.534,465.287,440.639,436.333z"/>
	<g id="main_and_fether_light">
		<path fill="#FFFFFF" d="M534.639,304.333c0,0-22.667,86.667-84,125.333c0,0,8,36-24,110
			C407.972,580.333,531.306,467,529.306,392.333c0,0,8.333,12.667,25.333,13.333C554.639,405.667,525.972,346.333,534.639,304.333z"
			/>
		<path fill="#FFFFFF" d="M389.972,447c0,0-42.667,0-66.667-32.667c0,0,53.333-40,25.333-48c0,0,30-16,41.333-36.667
			c11.333-20.667,47.334-14,50.667-12.667s-18.001-10-34.001-12.667c-16-2.667-18-10-18-13.333s100.667,26,106-141.333
			c-6.667-27.333,4.667,92-58,112.667c0,0,17.333-36,16-44c0,0-8.667,14.667-24,17.333c0,0,16.667-29.333,16-56.667
			c0,0-17.333-2-35.667,26c0,0,9.667-50,65-88.667c0,0,29.333-54-26-46c0,0,38.667-28.667,61.333,25.333s12,191.333-15.333,252
			C466.639,408.333,414.465,439.45,389.972,447z"/>
		<path fill="#FFFFFF" d="M449.972,57.667c0,0-44-37.333-64,10.667s-10.667,62-83.333,94c0,0,37.333-34,43.333-52
			c0,0-22.667-0.667-50.667,21.333c0,0,21.333-40,37.333-48.667c0,0-41.333,12.834-52,20.084c0,0,49.333-34.622,46-40.353
			c0,0-14-6.936-36.667,0c0,0-17.333-5.731-26-9.731c-8.667-4,125.333-32,149.333-29.333S448.639,53.667,449.972,57.667z"/>
		<path fill="#FFFFFF" d="M231.972,62.731c0,0-27.333,4.398-50,0s52,11.602,35.333,14.936C200.639,81,174.639,66.333,113.306,115
			s-93.333,21.333-96,20.667c-2.667-0.667,9.333,38,149.333-14c0,0-71.333,46.667-114.667,44.667c0,0,12,16.125,78.667,0.062
			c0,0-72.667,29.271-82,35.938c0,0-6,3.333-8.667,12.667s4.667-16.667,72.667-28.667S173.306,173,175.972,169
			c0,0-32,32.631-40,47.982s20-27.315,44.667-30.649c24.667-3.333-30,50.667-35.333,51.333c-5.333,0.667,46.667-12,68-68
			c5.333-42.667,30.667-76.756,30.667-76.756s-9.333-23.115-6-30.18H231.972z"/>
	</g>
	<g id="horse_head">
		<path fill="#FFFFFF" d="M275.972,92.911c0,0-15.333-9.244-20.667,6.756c0,0-17.333-22-11.333-50.667
			C243.972,49,276.639,76.155,275.972,92.911z"/>
		<path fill="#FFFFFF" d="M286.639,69c0,0-21.564-5.658-39.782-17.495"/>
		<path fill="#FFFFFF" d="M243.972,102.5c0,0-15.333,19.5-17.833,41.5c0,0,6,24,0,41s-11.5,32.5-17,47s2.5,25.231,5,22.866
			s4-1.866,3.5,4.134s4.442,12,7.971,12.5c3.529,0.5,0-8.5,0-8.5s8.529-30.5-11.971-22c0,0-5.5,4.5,8-22c0,0,21.5-33.951,14-59.5
			C235.639,159.5,233.306,117.5,243.972,102.5z"/>
		<path fill="#FFFFFF" d="M265.806,144.5l-12.333,17.833c0,0-8.667-6.667-6.167-16.667L265.806,144.5z"/>
		<polygon fill="#FFFFFF" points="256.329,174.667 246.853,177.5 225.61,223.167 232.639,224.5 		"/>
		<path fill="#FFFFFF" d="M242.139,269c0,0,2.667,11.167,18.833,0.833c0,0-6.333-7.5-1.333-10.167c5-2.667,29.333-25.5,29.833-48.5
			c0,0-15.667-5-5.833-36.5c2.45-7.849-2,21,8.5,24.917c10.5,3.917,23.667,0.417,43.5-37.25c4.833-11.5-1,8.333-4.667,15.333
			c-3.667,7-14,26-27,34.167c0,0-5,26-29,44.667c0,0-8.167,3.207-1.667,15.02c0,0-1.667,2.147-7.667,3.48
			s-12.167,4.833-12.833,6.667c-0.667,1.833-15,0.667-14.5-2.5C238.806,276,239.139,270.5,242.139,269z"/>
		<path fill="#FFFFFF" d="M341.389,167.5c0,0-4.75,18.75-13.75,25.75c0,0,56.25,8.75,80.25,90.75c0,0,13.5-0.25,15.75-4.75
			C423.639,279.25,403.389,206,341.389,167.5z"/>
		<path fill="#FFFFFF" d="M467.306,113c0,0-39-37.5-73-45.5c-4.794-1.128,20.333-36.333,50.333-4.769c0,0-5.167,3.436-6,11.102
			c0,0,26.333-1.5,31.167,4.833C474.639,85,479.806,101,467.306,113z"/>
	</g>
</g>
</svg>
