<svg xmlns="http://www.w3.org/2000/svg" width="576" height="576" viewBox="0 0 576 576"><g fill="#fff"><path d="M440.639 436.333s.667 81.128-44 111.897c0 0-46 16.103-143.333 15.436-97.333-.667-89.333-44-89.333-47.333 0-3.333-3.333-21.333 16-32 19.333-10.667 88-39.615 92.667-50 0 0 24.667-13.333 32-8.051 1.698 1.223 25.333 24.051 68.667 24.718 0 0-24 11.333-36 14l-5.333 14.667s71.56-14.38 108.665-43.334z"/><g><path d="M534.639 304.333s-22.667 86.667-84 125.333c0 0 8 36-24 110-18.667 40.667 104.667-72.666 102.667-147.333 0 0 8.333 12.667 25.333 13.333 0 .001-28.667-59.333-20-101.333zM389.972 447s-42.667 0-66.667-32.667c0 0 53.333-40 25.333-48 0 0 30-16 41.333-36.667 11.333-20.667 47.334-14 50.667-12.667s-18.001-10-34.001-12.667c-16-2.667-18-10-18-13.333s100.667 26 106-141.333c-6.667-27.333 4.667 92-58 112.667 0 0 17.333-36 16-44 0 0-8.667 14.667-24 17.333 0 0 16.667-29.333 16-56.667 0 0-17.333-2-35.667 26 0 0 9.667-50 65-88.667 0 0 29.333-54-26-46 0 0 38.667-28.667 61.333 25.333s12 191.333-15.333 252c-27.331 60.668-79.505 91.785-103.998 99.335zM449.972 57.667s-44-37.333-64 10.667-10.667 62-83.333 94c0 0 37.333-34 43.333-52 0 0-22.667-.667-50.667 21.333 0 0 21.333-40 37.333-48.667 0 0-41.333 12.834-52 20.084 0 0 49.333-34.622 46-40.353 0 0-14-6.936-36.667 0 0 0-17.333-5.731-26-9.731-8.667-4 125.333-32 149.333-29.333s35.335 30 36.668 34zM231.972 62.731s-27.333 4.398-50 0 52 11.602 35.333 14.936c-16.666 3.333-42.666-11.334-103.999 37.333s-93.333 21.333-96 20.667c-2.667-.667 9.333 38 149.333-14 0 0-71.333 46.667-114.667 44.667 0 0 12 16.125 78.667.062 0 0-72.667 29.271-82 35.938 0 0-6 3.333-8.667 12.667s4.667-16.667 72.667-28.667 60.667-13.334 63.333-17.334c0 0-32 32.631-40 47.982s20-27.315 44.667-30.649c24.667-3.333-30 50.667-35.333 51.333-5.333.667 46.667-12 68-68 5.333-42.667 30.667-76.756 30.667-76.756s-9.333-23.115-6-30.18h-6.001z"/></g><g><path d="M275.972 92.911s-15.333-9.244-20.667 6.756c0 0-17.333-22-11.333-50.667 0 0 32.667 27.155 32 43.911zM286.639 69s-21.564-5.658-39.782-17.495"/><path d="M243.972 102.5s-15.333 19.5-17.833 41.5c0 0 6 24 0 41s-11.5 32.5-17 47 2.5 25.231 5 22.866 4-1.866 3.5 4.134 4.442 12 7.971 12.5 0-8.5 0-8.5 8.529-30.5-11.971-22c0 0-5.5 4.5 8-22 0 0 21.5-33.951 14-59.5 0 0-2.333-42 8.333-57zM265.806 144.5l-12.333 17.833s-8.667-6.667-6.167-16.667l18.5-1.166zM256.329 174.667l-9.476 2.833-21.243 45.667 7.029 1.333zM242.139 269s2.667 11.167 18.833.833c0 0-6.333-7.5-1.333-10.167s29.333-25.5 29.833-48.5c0 0-15.667-5-5.833-36.5 2.45-7.849-2 21 8.5 24.917 10.5 3.917 23.667.417 43.5-37.25 4.833-11.5-1 8.333-4.667 15.333s-14 26-27 34.167c0 0-5 26-29 44.667 0 0-8.167 3.207-1.667 15.02 0 0-1.667 2.147-7.667 3.48s-12.167 4.833-12.833 6.667c-.667 1.833-15 .667-14.5-2.5.501-3.167.834-8.667 3.834-10.167zM341.389 167.5s-4.75 18.75-13.75 25.75c0 0 56.25 8.75 80.25 90.75 0 0 13.5-.25 15.75-4.75 0 0-20.25-73.25-82.25-111.75zM467.306 113s-39-37.5-73-45.5c-4.794-1.128 20.333-36.333 50.333-4.769 0 0-5.167 3.436-6 11.102 0 0 26.333-1.5 31.167 4.833 4.833 6.334 10 22.334-2.5 34.334z"/></g></g></svg>